<?xml version="1.0" encoding="UTF-8" standalone="no"?>
<svg width="14px" height="8px" viewBox="0 0 14 8" version="1.1" xmlns="http://www.w3.org/2000/svg" xmlns:xlink="http://www.w3.org/1999/xlink">
    <defs></defs>
    <g id="Page-1" stroke="none" stroke-width="1" fill="none" fill-rule="evenodd">
        <path d="M3.438,7.162 C5.22,7.162 6.561,6.172 6.561,4.651 C6.561,3.094 5.454,2.221 3.771,2.221 C2.439,2.221 1.548,2.752 1.017,3.742 C0.945,1.897 2.538,0.475 5.274,0.331 L5.274,0.232 C2.394,0.286 0,1.438 0,3.949 C0,5.92 1.233,7.162 3.438,7.162 L3.438,7.162 Z M10.485,7.162 C12.267,7.162 13.608,6.172 13.608,4.651 C13.608,3.094 12.501,2.221 10.818,2.221 C9.486,2.221 8.595,2.752 8.064,3.742 C7.992,1.897 9.585,0.475 12.321,0.331 L12.321,0.232 C9.441,0.286 7.047,1.438 7.047,3.949 C7.047,5.92 8.28,7.162 10.485,7.162 L10.485,7.162 Z" id="‘‘" fill="#4BC6DF"></path>
    </g>
</svg>